<?xml version="1.0" standalone="no"?>
<!DOCTYPE svg PUBLIC "-//W3C//DTD SVG 1.1//EN" "http://www.w3.org/Graphics/SVG/1.1/DTD/svg11.dtd" >
<!--
2013-9-30: Created.
-->
<svg>
<metadata>
Created by iconfont
</metadata>
<defs>

<font id="iconfont" horiz-adv-x="1024" >
  <font-face
    font-family="iconfont"
    font-weight="500"
    font-stretch="normal"
    units-per-em="1024"
    ascent="896"
    descent="-128"
  />
    <missing-glyph />
    
    <glyph glyph-name="bixuanxiang" unicode="&#58911;" d="M0 896h1024v-1024H0V896z m113.777778-113.777778v-796.444444h796.444444V782.222222H113.777778z"  horiz-adv-x="1024" />

    
    <glyph glyph-name="cebianzhankai" unicode="&#58912;" d="M1359.616 896l180.992-181.12L816.512-8.96 635.52 171.904zM855.296 217.088L674.176 36.096l-633.6 633.6L221.824 850.688z"  horiz-adv-x="1540" />

    
    <glyph glyph-name="bixuanxiang-gouxuan" unicode="&#58913;" d="M0 896h1024v-1024H0V896z m113.777778-113.777778v-796.444444h796.444444V782.222222H113.777778zM504.376889 313.912889l142.222222 246.328889a56.888889 56.888889 0 0 0 98.531556-56.888889l-170.666667-295.594667a56.888889 56.888889 0 0 0-77.710222-20.821333l-197.063111 113.777778a56.888889 56.888889 0 1 0 56.888889 98.531555l147.797333-85.333333z"  horiz-adv-x="1024" />

    
    <glyph glyph-name="dianshangshouye-" unicode="&#58914;" d="M128 896h768a128 128 0 0 0 128-128v-768a128 128 0 0 0-128-128H128a128 128 0 0 0-128 128V768a128 128 0 0 0 128 128z m64-256a320 320 0 1 1 640 0h-64a256 256 0 1 0-512 0H192z"  horiz-adv-x="1024" />

    
    <glyph glyph-name="cebianzhankai-xuanzhong" unicode="&#58915;" d="M1364.096 896l180.992-181.12L820.992-8.96 640 171.904zM904.96 171.904L723.968-9.088-0.128 714.88 180.864 896z"  horiz-adv-x="1545" />

    
    <glyph glyph-name="dianshangshouye-1" unicode="&#58916;" d="M128 896h768a128 128 0 0 0 128-128v-768a128 128 0 0 0-128-128H128a128 128 0 0 0-128 128V768a128 128 0 0 0 128 128z m64-256a320 320 0 1 1 640 0h-64a256 256 0 1 0-512 0H192z"  horiz-adv-x="1024" />

    
    <glyph glyph-name="dingdanguanli-" unicode="&#58917;" d="M64 512h896a64 64 0 0 0 64-64v-512a64 64 0 0 0-64-64H64a64 64 0 0 0-64 64V448a64 64 0 0 0 64 64z m357.504-436.992l-113.152 113.088a32 32 0 1 1-45.248-45.248l135.744-135.744a32 32 0 0 1 45.248 0l316.8 316.8a32 32 0 0 1-45.248 45.248l-294.144-294.144zM64 704m64 0l768 0q64 0 64-64l0 0q0-64-64-64l-768 0q-64 0-64 64l0 0q0 64 64 64ZM128 896m64 0l640 0q64 0 64-64l0 0q0-64-64-64l-640 0q-64 0-64 64l0 0q0 64 64 64Z"  horiz-adv-x="1024" />

    
    <glyph glyph-name="fenleiguanlian" unicode="&#58918;" d="M213.333333 42.666667h725.333334a42.666667 42.666667 0 0 0 42.666666-42.666667v-85.333333a42.666667 42.666667 0 0 0-42.666666-42.666667H85.333333a42.666667 42.666667 0 0 0-42.666666 42.666667V853.333333A42.666667 42.666667 0 0 0 85.333333 896h85.333334a42.666667 42.666667 0 0 0 42.666666-42.666667V42.666667z"  horiz-adv-x="1024" />

    
    <glyph glyph-name="fenleizhankai" unicode="&#58919;" d="M671.61516-17.920138L57.727928 683.646985A127.99984 127.99984 0 0 0 154.111807 895.99872h1227.774466a127.99984 127.99984 0 0 0 96.383879-212.351735l-613.887232-701.439123a127.99984 127.99984 0 0 0-192.76776 0z"  horiz-adv-x="1535" />

    
    <glyph glyph-name="fenleizhedie" unicode="&#58920;" d="M779.947093 319.744l-467.712-409.258667A85.333333 85.333333 0 0 0 170.667093-25.258667V793.258667A85.333333 85.333333 0 0 0 312.235093 857.6l467.626667-409.258667a85.333333 85.333333 0 0 0 0-128.512z"  horiz-adv-x="1024" />

    
    <glyph glyph-name="fuwubukexuan" unicode="&#58921;" d="M56.888889 896h910.222222a56.888889 56.888889 0 0 0 56.888889-56.888889v-910.222222a56.888889 56.888889 0 0 0-56.888889-56.888889H56.888889a56.888889 56.888889 0 0 0-56.888889 56.888889V839.111111a56.888889 56.888889 0 0 0 56.888889 56.888889z m56.888889-56.888889a56.888889 56.888889 0 0 1-56.888889-56.888889v-796.444444a56.888889 56.888889 0 0 1 56.888889-56.888889h796.444444a56.888889 56.888889 0 0 1 56.888889 56.888889V782.222222a56.888889 56.888889 0 0 1-56.888889 56.888889H113.777778zM56.888889 839.111111h910.222222v-910.222222H56.888889zM475.932444 207.758222l199.111112 344.860445a56.888889 56.888889 0 0 0 98.531555-56.888889l-227.555555-394.126222a56.888889 56.888889 0 0 0-77.710223-20.821334l-197.063111 113.777778a56.888889 56.888889 0 1 0 56.888889 98.531556l147.797333-85.333334z"  horiz-adv-x="1024" />

    
    <glyph glyph-name="fuwuxuanze" unicode="&#58922;" d="M56.888889 896h910.222222a56.888889 56.888889 0 0 0 56.888889-56.888889v-910.222222a56.888889 56.888889 0 0 0-56.888889-56.888889H56.888889a56.888889 56.888889 0 0 0-56.888889 56.888889V839.111111a56.888889 56.888889 0 0 0 56.888889 56.888889z m56.888889-56.888889a56.888889 56.888889 0 0 1-56.888889-56.888889v-796.444444a56.888889 56.888889 0 0 1 56.888889-56.888889h796.444444a56.888889 56.888889 0 0 1 56.888889 56.888889V782.222222a56.888889 56.888889 0 0 1-56.888889 56.888889H113.777778zM481.507556 217.429333l199.111111 344.860445a56.888889 56.888889 0 1 0 98.531555-56.888889l-227.555555-394.126222a56.888889 56.888889 0 0 0-77.710223-20.821334l-197.063111 113.777778a56.888889 56.888889 0 1 0 56.888889 98.531556l147.797334-85.333334z"  horiz-adv-x="1024" />

    
    <glyph glyph-name="jingyingleimushanchu" unicode="&#58923;" d="M874.044333 836.534672m45.254834-45.254834l0 0q45.254834-45.254834 0-90.509668l-724.077344-724.077344q-45.254834-45.254834-90.509667 0l0 0q-45.254834 45.254834 0 90.509668l724.077343 724.077344q45.254834 45.254834 90.509668 0ZM149.96699 836.534672m45.254833-45.254834l724.077344-724.077344q45.254834-45.254834 0-90.509668l0 0q-45.254834-45.254834-90.509668 0l-724.077343 724.077344q-45.254834 45.254834 0 90.509668l0 0q45.254834 45.254834 90.509667 0Z"  horiz-adv-x="1024" />

    
    <glyph glyph-name="gongjuxialazhankai" unicode="&#58924;" d="M1688.118672 895.974141m72.407734-72.407735l0 0q72.407734-72.407734 0-144.815468l-724.077344-724.077344q-72.407734-72.407734-144.815468 0l0 0q-72.407734 72.407734 0 144.815468l724.077344 724.077344q72.407734 72.407734 144.815468 0ZM144.841328 895.974141m72.407734-72.407735l724.077344-724.077344q72.407734-72.407734 0-144.815468l0 0q-72.407734-72.407734-144.815468 0l-724.077344 724.077344q-72.407734 72.407734 0 144.815468l0 0q72.407734 72.407734 144.815468 0Z"  horiz-adv-x="1843" />

    
    <glyph glyph-name="paixuqiehuan" unicode="&#58925;" d="M572.854857 804.717714L804.571429 457.142857H219.428571l231.716572 347.574857a73.142857 73.142857 0 0 0 121.709714 0zM451.145143-36.717714L219.428571 310.857143h585.142858l-231.716572-347.574857a73.142857 73.142857 0 0 0-121.709714 0z"  horiz-adv-x="1024" />

    
    <glyph glyph-name="pinpaileimuxialazhankai" unicode="&#58926;" d="M1766.179924 789.048819l14.575812-14.575812a92.839567 92.839567 0 0 0 0-131.275148l-744.016291-744.016291a92.839567 92.839567 0 0 0-131.275147 0l-14.575812 14.575812a92.839567 92.839567 0 0 0 0 131.367988l744.01629 743.923451a92.839567 92.839567 0 0 0 131.275148 0zM211.488534 789.048819l744.01629-743.923451a92.839567 92.839567 0 0 0 0-131.367988l-14.575812-14.575812a92.839567 92.839567 0 0 0-131.275148 0L65.637574 643.197859a92.839567 92.839567 0 0 0 0 131.275148l14.575812 14.575812a92.839567 92.839567 0 0 0 131.275148 0z"  horiz-adv-x="1856" />

    
    <glyph glyph-name="jingyingleimuzhankai" unicode="&#58927;" d="M288.619776 846.0288l8.0384 8.0384a51.2 51.2 0 0 0 72.3968 0l410.3168-410.3168a51.2 51.2 0 0 0 0-72.3968l-8.0384-8.0384a51.2 51.2 0 0 0-72.448 0L288.619776 773.632a51.2 51.2 0 0 0 0 72.3968zM288.619776-11.3664l410.2656 410.3168a51.2 51.2 0 0 0 72.448 0l8.0384-8.0384a51.2 51.2 0 0 0 0-72.3968l-410.3168-410.3168a51.2 51.2 0 0 0-72.3968 0l-8.0384 8.0384a51.2 51.2 0 0 0 0 72.3968z"  horiz-adv-x="1024" />

    
    <glyph glyph-name="cebianzhedie" unicode="&#58928;" d="M172.702452 776.058317L292.72896 896 772.410868 416.148443 652.554009 296.206759zM652.554009 471.793241l119.941684-119.941684-479.766733-479.851557L172.702452-8.058317z"  horiz-adv-x="1024" />

    
    <glyph glyph-name="shangpinfabuxiala" unicode="&#58929;" d="M1766.179924 789.048819l14.575812-14.575812a92.839567 92.839567 0 0 0 0-131.275148l-744.016291-744.016291a92.839567 92.839567 0 0 0-131.275147 0l-14.575812 14.575812a92.839567 92.839567 0 0 0 0 131.367988l744.01629 743.923451a92.839567 92.839567 0 0 0 131.275148 0zM211.488534 789.048819l744.01629-743.923451a92.839567 92.839567 0 0 0 0-131.367988l-14.575812-14.575812a92.839567 92.839567 0 0 0-131.275148 0L65.637574 643.197859a92.839567 92.839567 0 0 0 0 131.275148l14.575812 14.575812a92.839567 92.839567 0 0 0 131.275148 0z"  horiz-adv-x="1856" />

    
    <glyph glyph-name="shangyi" unicode="&#58930;" d="M559.542857 855.186286L1024 457.142857H0L464.457143 855.186286a73.142857 73.142857 0 0 0 95.085714 0zM292.571429 530.285714h438.857142v-658.285714H292.571429z"  horiz-adv-x="1024" />

    
    <glyph glyph-name="shangjiaguanli-" unicode="&#58931;" d="M1011.90656 374.4A128 128 0 1 0 768.00256 320a128 128 0 1 0-256 0 128 128 0 1 0-256 0 128 128 0 1 0-243.904 54.4l93.632 421.376A128 128 0 0 0 230.65856 896h562.688a128 128 0 0 0 124.928-100.224l93.632-421.44zM288.00256 512a32 32 0 0 1 0-64h448a32 32 0 1 1 0 64h-448zM238.85056 192h34.304a128 128 0 0 1 221.696 0h34.304a128 128 0 0 1 221.696 0h34.304A128 128 0 0 1 896.00256 128v-192a64 64 0 0 0-64-64H192.00256a64 64 0 0 0-64 64v192a128 128 0 0 1 110.848 64z"  horiz-adv-x="1024" />

    
    <glyph glyph-name="dingdanguanli-1" unicode="&#58932;" d="M64 512h896a64 64 0 0 0 64-64v-512a64 64 0 0 0-64-64H64a64 64 0 0 0-64 64V448a64 64 0 0 0 64 64z m357.504-436.992l-113.152 113.088a32 32 0 1 1-45.248-45.248l135.744-135.744a32 32 0 0 1 45.248 0l316.8 316.8a32 32 0 0 1-45.248 45.248l-294.144-294.144zM64 704m64 0l768 0q64 0 64-64l0 0q0-64-64-64l-768 0q-64 0-64 64l0 0q0 64 64 64ZM128 896m64 0l640 0q64 0 64-64l0 0q0-64-64-64l-640 0q-64 0-64 64l0 0q0 64 64 64Z"  horiz-adv-x="1024" />

    
    <glyph glyph-name="shangpinguanli-" unicode="&#58933;" d="M0 896m64 0l256 0q64 0 64-64l0-896q0-64-64-64l-256 0q-64 0-64 64l0 896q0 64 64 64ZM448 896m64 0l448 0q64 0 64-64l0-192q0-64-64-64l-448 0q-64 0-64 64l0 192q0 64 64 64ZM448 512m64 0l448 0q64 0 64-64l0-192q0-64-64-64l-448 0q-64 0-64 64l0 192q0 64 64 64ZM448 128m64 0l128 0q64 0 64-64l0-128q0-64-64-64l-128 0q-64 0-64 64l0 128q0 64 64 64ZM768 128m64 0l128 0q64 0 64-64l0-128q0-64-64-64l-128 0q-64 0-64 64l0 128q0 64 64 64Z"  horiz-adv-x="1024" />

    
    <glyph glyph-name="shangpinguanli-1" unicode="&#58934;" d="M0 896m64 0l256 0q64 0 64-64l0-896q0-64-64-64l-256 0q-64 0-64 64l0 896q0 64 64 64ZM448 896m64 0l448 0q64 0 64-64l0-192q0-64-64-64l-448 0q-64 0-64 64l0 192q0 64 64 64ZM448 512m64 0l448 0q64 0 64-64l0-192q0-64-64-64l-448 0q-64 0-64 64l0 192q0 64 64 64ZM448 128m64 0l128 0q64 0 64-64l0-128q0-64-64-64l-128 0q-64 0-64 64l0 128q0 64 64 64ZM768 128m64 0l128 0q64 0 64-64l0-128q0-64-64-64l-128 0q-64 0-64 64l0 128q0 64 64 64Z"  horiz-adv-x="1024" />

    
    <glyph glyph-name="sousuo" unicode="&#58935;" d="M469.333333-42.666667C210.133333-42.666667 0 167.466667 0 426.666667S210.133333 896 469.333333 896s469.333333-210.133333 469.333334-469.333333-210.133333-469.333333-469.333334-469.333334z m0 85.333334a384 384 0 1 1 0 768 384 384 0 0 1 0-768zM725.333333 110.336L785.664 170.666667l211.2-211.2-60.330667-60.330667z"  horiz-adv-x="1024" />

    
    <glyph glyph-name="tuichudenglu" unicode="&#58936;" d="M636.928-28.0576L30.72 729.7024A102.4 102.4 0 0 0 110.592 896h1212.416a102.4 102.4 0 0 0 79.872-166.4L796.672-28.0576a102.4 102.4 0 0 0-159.744 0z"  horiz-adv-x="1433" />

    
    <glyph glyph-name="wodezhanghao-" unicode="&#58937;" d="M512 640m-256 0a256 256 0 1 1 512 0 256 256 0 1 1-512 0ZM0 89.6C116.736 229.568 302.656 320 512 320s395.264-90.496 512-230.4V-128H0v217.6z"  horiz-adv-x="1024" />

    
    <glyph glyph-name="wodezhanghao-1" unicode="&#58938;" d="M512 640m-256 0a256 256 0 1 1 512 0 256 256 0 1 1-512 0ZM0 89.6C116.736 229.568 302.656 320 512 320s395.264-90.496 512-230.4V-128H0v217.6z"  horiz-adv-x="1024" />

    
    <glyph glyph-name="shujuzhongxin-" unicode="&#58939;" d="M866.944 541.056l-188.16-188.16-90.496-90.432a64 64 0 0 0-90.496 0l-45.248 45.248-226.24-226.304a64 64 0 0 0-90.56 0L45.248 171.904a64 64 0 0 0 0 90.56L316.8 533.952l90.496 90.496a64 64 0 0 0 90.496 0l45.248-45.248 142.912 142.848-64.64 64.64A64 64 0 0 0 666.432 896H960a64 64 0 0 0 64-64v-293.504a64 64 0 0 0-109.248-45.248l-47.808 47.808zM928 352l77.248-77.248a64 64 0 0 0 18.752-45.248V-64a64 64 0 0 0-64-64h-64a64 64 0 0 0-64 64V312.256a56.256 56.256 0 0 0 96 39.744zM594.752 146.752L672 224a56.256 56.256 0 0 0 96-39.744V-64a64 64 0 0 0-64-64h-64a64 64 0 0 0-64 64v165.504a64 64 0 0 0 18.752 45.248zM274.752-45.248l128 128A64 64 0 0 0 512 37.504V-64a64 64 0 0 0-64-64H288a32 32 0 0 0-32 32v5.504a64 64 0 0 0 18.752 45.248zM90.496 37.504l82.752-82.752a64 64 0 0 0 18.752-45.248v-5.504a32 32 0 0 0-32-32H64a64 64 0 0 0-64 64v64a52.992 52.992 0 0 0 90.496 37.504z"  horiz-adv-x="1024" />

    
    <glyph glyph-name="wuliuguanli-" unicode="&#58940;" d="M0 576h1024v-640a64 64 0 0 0-64-64H64a64 64 0 0 0-64 64V576z m736-384a32 32 0 1 1 0-64h128a32 32 0 1 1 0 64h-128z m-128-128a32 32 0 1 1 0-64h256a32 32 0 1 1 0 64h-256zM113.92 896H448v-256H0L51.84 847.552A64 64 0 0 0 113.92 896zM576 896h334.08a64 64 0 0 0 62.08-48.448L1024 640H576V896z"  horiz-adv-x="1024" />

    
    <glyph glyph-name="shangjiaguanli-1" unicode="&#58941;" d="M1011.90656 374.4A128 128 0 1 0 768.00256 320a128 128 0 1 0-256 0 128 128 0 1 0-256 0 128 128 0 1 0-243.904 54.4l93.632 421.376A128 128 0 0 0 230.65856 896h562.688a128 128 0 0 0 124.928-100.224l93.632-421.44zM288.00256 512a32 32 0 0 1 0-64h448a32 32 0 1 1 0 64h-448zM238.85056 192h34.304a128 128 0 0 1 221.696 0h34.304a128 128 0 0 1 221.696 0h34.304A128 128 0 0 1 896.00256 128v-192a64 64 0 0 0-64-64H192.00256a64 64 0 0 0-64 64v192a128 128 0 0 1 110.848 64z"  horiz-adv-x="1024" />

    
    <glyph glyph-name="shujuzhongxin-1" unicode="&#58942;" d="M866.944 541.056l-188.16-188.16-90.496-90.432a64 64 0 0 0-90.496 0l-45.248 45.248-226.24-226.304a64 64 0 0 0-90.56 0L45.248 171.904a64 64 0 0 0 0 90.56L316.8 533.952l90.496 90.496a64 64 0 0 0 90.496 0l45.248-45.248 142.912 142.848-64.64 64.64A64 64 0 0 0 666.432 896H960a64 64 0 0 0 64-64v-293.504a64 64 0 0 0-109.248-45.248l-47.808 47.808zM928 352l77.248-77.248a64 64 0 0 0 18.752-45.248V-64a64 64 0 0 0-64-64h-64a64 64 0 0 0-64 64V312.256a56.256 56.256 0 0 0 96 39.744zM594.752 146.752L672 224a56.256 56.256 0 0 0 96-39.744V-64a64 64 0 0 0-64-64h-64a64 64 0 0 0-64 64v165.504a64 64 0 0 0 18.752 45.248zM274.752-45.248l128 128A64 64 0 0 0 512 37.504V-64a64 64 0 0 0-64-64H288a32 32 0 0 0-32 32v5.504a64 64 0 0 0 18.752 45.248zM90.496 37.504l82.752-82.752a64 64 0 0 0 18.752-45.248v-5.504a32 32 0 0 0-32-32H64a64 64 0 0 0-64 64v64a52.992 52.992 0 0 0 90.496 37.504z"  horiz-adv-x="1024" />

    
    <glyph glyph-name="xitongshezhi-" unicode="&#58943;" d="M659.482853 27.866661l-12.540842-99.814859a63.983884 63.983884 0 0 0-63.472013-56.049882H440.530002a63.983884 63.983884 0 0 0-63.472013 56.049882l-12.540842 99.814859-79.340016-61.744448a63.983884 63.983884 0 0 0-84.586695 5.246678l-101.094537 101.094537a63.983884 63.983884 0 0 0-5.246678 84.522711l61.744448 79.404-99.814859 12.540842A63.983884 63.983884 0 0 0 0.128928 312.402993V455.34299a63.983884 63.983884 0 0 0 56.049882 63.472013l99.814859 12.540842-61.744448 79.340016a63.983884 63.983884 0 0 0 5.246678 84.586695l101.094537 101.094537a63.983884 63.983884 0 0 0 84.522711 5.246678l79.404-61.744448 12.540842 99.814859A63.983884 63.983884 0 0 0 440.530002 895.744064h142.939996a63.983884 63.983884 0 0 0 63.472013-56.049882l12.540842-99.814859 79.340016 61.744448a63.983884 63.983884 0 0 0 84.586695-5.246678l101.094537-101.094537a63.983884 63.983884 0 0 0 5.246678-84.522711l-61.744448-79.404 99.814859-12.540842a63.983884 63.983884 0 0 0 56.049882-63.472013v-142.939997a63.983884 63.983884 0 0 0-56.049882-63.472012l-99.814859-12.540842 61.744448-79.340016a63.983884 63.983884 0 0 0-5.246678-84.586695l-101.094537-101.094537a63.983884 63.983884 0 0 0-84.522711-5.246678l-79.404 61.744448zM512 255.905224a127.967768 127.967768 0 1 1 0 255.935536 127.967768 127.967768 0 0 1 0-255.935536z"  horiz-adv-x="1024" />

    
    <glyph glyph-name="xitongshouye-" unicode="&#58944;" d="M60.16 613.632l384 240a128 128 0 0 0 135.68 0l384-240A128 128 0 0 0 1024 505.088V0a128 128 0 0 0-128-128H128a128 128 0 0 0-128 128V505.088a128 128 0 0 0 60.16 108.544zM192 128v-64h640v64H192z"  horiz-adv-x="1024" />

    
    <glyph glyph-name="wuliuguanli-1" unicode="&#58945;" d="M0 576h1024v-640a64 64 0 0 0-64-64H64a64 64 0 0 0-64 64V576z m736-384a32 32 0 1 1 0-64h128a32 32 0 1 1 0 64h-128z m-128-128a32 32 0 1 1 0-64h256a32 32 0 1 1 0 64h-256zM113.92 896H448v-256H0L51.84 847.552A64 64 0 0 0 113.92 896zM576 896h334.08a64 64 0 0 0 62.08-48.448L1024 640H576V896z"  horiz-adv-x="1024" />

    
    <glyph glyph-name="xiayi" unicode="&#58946;" d="M464.457143-87.186286L0 310.857143h1024l-464.457143-398.043429a73.142857 73.142857 0 0 0-95.085714 0zM731.428571 237.714286H292.571429V896h438.857142z"  horiz-adv-x="1024" />

    
    <glyph glyph-name="xiaoxi-wu" unicode="&#58947;" d="M660.288 0a53.312 53.312 0 0 0-20.288-32l-89.6-67.2a64 64 0 0 0-76.8 0L384-32a53.12 53.12 0 0 0-20.288 32H128a128 128 0 0 0-128 128V768a128 128 0 0 0 128 128h768a128 128 0 0 0 128-128v-640a128 128 0 0 0-128-128h-235.712zM352 576a32 32 0 0 1 0-64h320a32 32 0 1 1 0 64h-320z m0-192a32 32 0 0 1 0-64h320a32 32 0 1 1 0 64h-320z"  horiz-adv-x="1024" />

    
    <glyph glyph-name="xiaoxi-you" unicode="&#58948;" d="M636.874105-20.210526a44.894316 44.894316 0 0 0-17.084631-26.947369l-75.452632-56.589473a53.894737 53.894737 0 0 0-64.673684 0L404.210526-47.157895a44.732632 44.732632 0 0 0-17.084631 26.947369H188.631579a107.789474 107.789474 0 0 0-107.789474 107.789473V626.526316a107.789474 107.789474 0 0 0 107.789474 107.789473h646.736842a107.789474 107.789474 0 0 0 107.789474-107.789473v-538.947369a107.789474 107.789474 0 0 0-107.789474-107.789473h-198.494316zM377.263158 464.842105a26.947368 26.947368 0 0 1 0-53.894737h269.473684a26.947368 26.947368 0 1 1 0 53.894737h-269.473684z m0-161.68421a26.947368 26.947368 0 1 1 0-53.894737h269.473684a26.947368 26.947368 0 1 1 0 53.894737h-269.473684zM781.473684 734.315789m-161.68421 0a161.684211 161.684211 0 1 1 323.368421 0 161.684211 161.684211 0 1 1-323.368421 0Z"  horiz-adv-x="1024" />

    
    <glyph glyph-name="xitongshouye-1" unicode="&#58949;" d="M60.16 613.632l384 240a128 128 0 0 0 135.68 0l384-240A128 128 0 0 0 1024 505.088V0a128 128 0 0 0-128-128H128a128 128 0 0 0-128 128V505.088a128 128 0 0 0 60.16 108.544zM192 128v-64h640v64H192z"  horiz-adv-x="1024" />

    
    <glyph glyph-name="xitongshezhi-1" unicode="&#58950;" d="M659.482853 27.866661l-12.540842-99.814859a63.983884 63.983884 0 0 0-63.472013-56.049882H440.530002a63.983884 63.983884 0 0 0-63.472013 56.049882l-12.540842 99.814859-79.340016-61.744448a63.983884 63.983884 0 0 0-84.586695 5.246678l-101.094537 101.094537a63.983884 63.983884 0 0 0-5.246678 84.522711l61.744448 79.404-99.814859 12.540842A63.983884 63.983884 0 0 0 0.128928 312.402993V455.34299a63.983884 63.983884 0 0 0 56.049882 63.472013l99.814859 12.540842-61.744448 79.340016a63.983884 63.983884 0 0 0 5.246678 84.586695l101.094537 101.094537a63.983884 63.983884 0 0 0 84.522711 5.246678l79.404-61.744448 12.540842 99.814859A63.983884 63.983884 0 0 0 440.530002 895.744064h142.939996a63.983884 63.983884 0 0 0 63.472013-56.049882l12.540842-99.814859 79.340016 61.744448a63.983884 63.983884 0 0 0 84.586695-5.246678l101.094537-101.094537a63.983884 63.983884 0 0 0 5.246678-84.522711l-61.744448-79.404 99.814859-12.540842a63.983884 63.983884 0 0 0 56.049882-63.472013v-142.939997a63.983884 63.983884 0 0 0-56.049882-63.472012l-99.814859-12.540842 61.744448-79.340016a63.983884 63.983884 0 0 0-5.246678-84.586695l-101.094537-101.094537a63.983884 63.983884 0 0 0-84.522711-5.246678l-79.404 61.744448zM512 255.905224a127.967768 127.967768 0 1 1 0 255.935536 127.967768 127.967768 0 0 1 0-255.935536z"  horiz-adv-x="1024" />

    
    <glyph glyph-name="xinjianleimutianchong" unicode="&#58951;" d="M512-128A512 512 0 1 0 512 896a512 512 0 0 0 0-1024z m0 128A384 384 0 1 1 512 768a384 384 0 0 1 0-768zM462.848 328.576l96 166.272a64 64 0 1 0 110.848-64l-128-221.696a64 64 0 0 0-110.848 0 63.68 63.68 0 0 0-32 8.576l-55.424 32a64 64 0 1 0 64 110.848l55.424-32z"  horiz-adv-x="1024" />

    
    <glyph glyph-name="xinjianleimuweitianchong" unicode="&#58952;" d="M512-128A512 512 0 1 0 512 896a512 512 0 0 0 0-1024z m0 128A384 384 0 1 1 512 768a384 384 0 0 1 0-768z"  horiz-adv-x="1024" />

    
    <glyph glyph-name="xuanzefuwu" unicode="&#58953;" d="M56.888889 896h910.222222a56.888889 56.888889 0 0 0 56.888889-56.888889v-910.222222a56.888889 56.888889 0 0 0-56.888889-56.888889H56.888889a56.888889 56.888889 0 0 0-56.888889 56.888889V839.111111a56.888889 56.888889 0 0 0 56.888889 56.888889z m56.888889-56.888889a56.888889 56.888889 0 0 1-56.888889-56.888889v-796.444444a56.888889 56.888889 0 0 1 56.888889-56.888889h796.444444a56.888889 56.888889 0 0 1 56.888889 56.888889V782.222222a56.888889 56.888889 0 0 1-56.888889 56.888889H113.777778z"  horiz-adv-x="1024" />

    
    <glyph glyph-name="yunyingzhongxin-" unicode="&#58954;" d="M128 896h768a128 128 0 0 0 128-128v-768a128 128 0 0 0-128-128H128a128 128 0 0 0-128 128V768a128 128 0 0 0 128 128z m384-640l150.464-79.104-28.736 167.552 121.728 118.656-168.192 24.448L512 640 436.736 487.552l-168.192-24.448 121.728-118.656-28.8-167.552L512 256z"  horiz-adv-x="1024" />

    
    <glyph glyph-name="zhidi" unicode="&#58955;" d="M943.5392-128m-64 0l-768 0q-64 0-64 64l0 64q0 64 64 64l768 0q64 0 64-64l0-64q0-64-64-64ZM453.9392 163.712L47.5392 512 943.5392 512l-406.4-348.288a64 64 0 0 0-83.2 0zM687.5392 448l-384 0 0 448L687.5392 896z"  horiz-adv-x="1024" />

    
    <glyph glyph-name="yunyingzhongxin-1" unicode="&#58956;" d="M128 896h768a128 128 0 0 0 128-128v-768a128 128 0 0 0-128-128H128a128 128 0 0 0-128 128V768a128 128 0 0 0 128 128z m384-640l150.464-79.104-28.736 167.552 121.728 118.656-168.192 24.448L512 640 436.736 487.552l-168.192-24.448 121.728-118.656-28.8-167.552L512 256z"  horiz-adv-x="1024" />

    
    <glyph glyph-name="zhiding" unicode="&#58957;" d="M64 896m64 0l768 0q64 0 64-64l0-64q0-64-64-64l-768 0q-64 0-64 64l0 64q0 64 64 64ZM553.6 604.288L960 256H64l406.4 348.288a64 64 0 0 0 83.2 0zM320 320h384v-448H320z"  horiz-adv-x="1024" />

    
    <glyph glyph-name="gongjushanchu" unicode="&#58958;" d="M512-128A512 512 0 1 0 512 896a512 512 0 0 0 0-1024z m0 170.666667a341.333333 341.333333 0 1 1 0 682.666666 341.333333 341.333333 0 0 1 0-682.666666zM426.666667 554.666667h170.666666v-341.333334H426.666667zM341.333333 469.333333h341.333334v-170.666666H341.333333z"  horiz-adv-x="1024" />

    
    <glyph glyph-name="gongjutianjia" unicode="&#58959;" d="M512-128A512 512 0 1 0 512 896a512 512 0 0 0 0-1024z m0 170.666667a341.333333 341.333333 0 1 1 0 682.666666 341.333333 341.333333 0 0 1 0-682.666666zM341.333333 469.333333h341.333334v-170.666666H341.333333z"  horiz-adv-x="1024" />

    


  </font>
</defs>
</svg>
